<svg xmlns="http://www.w3.org/2000/svg" viewBox="0 0 120 60">
  <defs>
    <linearGradient id="g" x1="0%" y1="0%" x2="100%" y2="100%">
      <stop offset="0%" stop-color="#1a1a2e"/>
      <stop offset="100%" stop-color="#16213e"/>
    </linearGradient>
  </defs>
  <rect width="120" height="60" fill="url(#g)" rx="8"/>
  <!-- QRIS pixel pattern border -->
  <rect x="8" y="8" width="44" height="44" rx="4" fill="white"/>
  <!-- QR pattern simplified -->
  <rect x="12" y="12" width="12" height="12" fill="#1a1a2e" rx="2"/>
  <rect x="28" y="12" width="12" height="12" fill="#1a1a2e" rx="2"/>
  <rect x="14" y="14" width="8" height="8" fill="white" rx="1"/>
  <rect x="30" y="14" width="8" height="8" fill="white" rx="1"/>
  <rect x="12" y="28" width="12" height="12" fill="#1a1a2e" rx="2"/>
  <rect x="14" y="30" width="8" height="8" fill="white" rx="1"/>
  <rect x="28" y="28" width="6" height="6" fill="#1a1a2e" rx="1"/>
  <rect x="36" y="28" width="6" height="6" fill="#1a1a2e" rx="1"/>
  <rect x="28" y="36" width="6" height="6" fill="#1a1a2e" rx="1"/>
  <rect x="36" y="36" width="6" height="6" fill="#1a1a2e" rx="1"/>
  <rect x="16" y="38" width="4" height="4" fill="#1a1a2e"/>
  <rect x="22" y="38" width="4" height="4" fill="#1a1a2e"/>
  <!-- QRIS text -->
  <text x="82" y="26" font-family="Arial Black,sans-serif" font-size="15" font-weight="900" fill="white" text-anchor="middle">QRIS</text>
  <text x="82" y="42" font-family="Arial,sans-serif" font-size="8" fill="#93c5fd" text-anchor="middle">Semua Bank &amp;</text>
  <text x="82" y="52" font-family="Arial,sans-serif" font-size="8" fill="#93c5fd" text-anchor="middle">E-Wallet</text>
</svg>
